<?xml version="1.0" encoding="utf-8"?>
<!-- Generator: Adobe Illustrator 23.0.6, SVG Export Plug-In . SVG Version: 6.00 Build 0)  -->
<svg version="1.1" id="Layer_1" xmlns="http://www.w3.org/2000/svg" xmlns:xlink="http://www.w3.org/1999/xlink" x="0px" y="0px"
	 viewBox="0 0 50.1 50.1" style="enable-background:new 0 0 50.1 50.1;" xml:space="preserve">
<g>
	<path d="M25,0C11.3,0,0,11.3,0,25s11.3,25,25,25s25-11.3,25-25S38.8,0,25,0z M25,46.8C13,46.8,3.3,37.1,3.3,25S13,3.3,25,3.3
		S46.8,13,46.8,25S37.1,46.8,25,46.8z"/>
	<path d="M36.4,22.1h-9.8v-9.8c0-0.9-0.7-1.6-1.6-1.6s-1.6,0.7-1.6,1.6v9.8h-9.8c-0.9,0-1.6,0.7-1.6,1.6s0.7,1.6,1.6,1.6h9.8v9.8
		c0,0.9,0.7,1.6,1.6,1.6s1.6-0.7,1.6-1.6v-9.8h9.8c0.9,0,1.6-0.7,1.6-1.6S37.3,22.1,36.4,22.1z"/>
</g>
</svg>
