<svg id="레이어_1" data-name="레이어 1" xmlns="http://www.w3.org/2000/svg" viewBox="0 0 550.09 93.98"><defs><style>.cls-1{fill:#266cc2;}</style></defs><title>logo_text</title><path class="cls-1" d="M386,47q10.39-1.86,10.39-14.59V17.56Q396.42,0,379.35,0h-72V94h72.37q16.93,0,16.93-17.44V60.47c0-3.71-.83-6.68-2.53-8.9S389.74,47.82,386,47ZM375.4,67.27c0,2.48-1.24,3.71-3.71,3.71H328.76V56.39h42.93q3.71,0,3.71,3.71Zm0-33.52c0,2.49-1.24,3.72-3.71,3.72H328.76V23h42.93q3.71,0,3.71,3.71Z"/><path class="cls-1" d="M221.72,66.66c0,2.46-1.25,3.71-3.72,3.71H179c-2.47,0-3.7-1.25-3.7-3.71V0h-21.4V77.53Q153.93,94,171.24,94h54.43Q243,94,243,77.53V0H221.72Z"/><path class="cls-1" d="M528.83,66.66c0,2.46-1.24,3.71-3.71,3.71h-39c-2.48,0-3.71-1.25-3.71-3.71V0H461V77.53Q461,94,478.35,94h54.44q17.3,0,17.3-16.45V0H528.83Z"/><path class="cls-1" d="M54.67,57.69H69V70.37H25.11c-2.47,0-3.71-1.25-3.71-3.71V27.33c0-2.47,1.24-3.72,3.71-3.72H89.8V0H16.94Q0,0,0,17.19V77.53Q0,94,16.94,94H72.49Q89.8,94,89.8,77.53V36.3H40.57Z"/></svg>