<svg id="레이어_1" data-name="레이어 1" xmlns="http://www.w3.org/2000/svg" viewBox="0 0 30.23 30.26"><defs><style>.cls-1{fill:#000000;}</style></defs><title>logoman</title><path class="cls-1" d="M29.66,17.36l-2.44,0c-.44,0-.64.11-.77.29l-5.29,7.21a.59.59,0,0,0-.09.51l.84,2.6a.57.57,0,0,0,.81.33,14,14,0,0,0,5-4.23,13.76,13.76,0,0,0,2.52-6A.58.58,0,0,0,29.66,17.36Z"/><path class="cls-1" d="M17.59,29.35l-.81-2.56a.59.59,0,0,0-.37-.37L7.79,23.64a.58.58,0,0,0-.51.07L5.05,25.3a.58.58,0,0,0-.07.88,14.24,14.24,0,0,0,12.15,3.9A.56.56,0,0,0,17.59,29.35Z"/><path class="cls-1" d="M21.89,2.29,21,4.84a.55.55,0,0,0,.08.51l5.32,7.27a.6.6,0,0,0,.46.24h2.75a.58.58,0,0,0,.58-.67,13.86,13.86,0,0,0-2.52-6A14,14,0,0,0,22.7,2,.59.59,0,0,0,21.89,2.29Z"/><path class="cls-1" d="M2.38,21.68l2.2-1.56a.58.58,0,0,0,.24-.47v-9a.57.57,0,0,0-.24-.46L2.38,8.59a.59.59,0,0,0-.86.21,13.92,13.92,0,0,0,0,12.67A.58.58,0,0,0,2.38,21.68Z"/><path class="cls-1" d="M5,5,7.21,6.55a.6.6,0,0,0,.52.09l8.62-2.78a.54.54,0,0,0,.36-.36L17.58.92a.57.57,0,0,0-.46-.75A14.25,14.25,0,0,0,5,4.09.58.58,0,0,0,5,5Z"/><path class="cls-1" d="M21.12,19.08v-3.4a1.69,1.69,0,0,0-.29-1,1.11,1.11,0,0,0-.93-.52H14.22a.05.05,0,0,0,0,.09l2.07,2.05,0,0h1.9a.48.48,0,0,1,.48.47v.66a1.09,1.09,0,0,1-1.09,1H12.37A.47.47,0,0,1,11.9,18V12.46a.47.47,0,0,1,.47-.47h5.22a1.09,1.09,0,0,1,1.09,1v.33H20a1.06,1.06,0,0,1,1,.54,0,0,0,0,0,.09,0V11.37a1.74,1.74,0,0,0-2-2H11.39a1.72,1.72,0,0,0-1.94,1.95v7.86c0,1.25.64,1.87,1.94,1.87h7.78A1.74,1.74,0,0,0,21.12,19.08Z"/></svg>