<?xml version="1.0" encoding="utf-8"?>
<!-- Generator: Adobe Illustrator 23.0.6, SVG Export Plug-In . SVG Version: 6.00 Build 0)  -->
<svg version="1.1" id="Isolation_Mode" xmlns="http://www.w3.org/2000/svg" xmlns:xlink="http://www.w3.org/1999/xlink" x="0px"
	 y="0px" viewBox="0 0 50 50" style="enable-background:new 0 0 50 50;" xml:space="preserve">
<path d="M46.4,19.5L46.4,19.5l-4.6-1.1c-0.1-0.2-0.2-0.4-0.2-0.6l2.4-4c0.8-1.3,0.6-3.2-0.5-4.4l-2.8-2.8c-1.1-1.1-3-1.3-4.4-0.5
	l-4,2.4c-0.2-0.1-0.4-0.2-0.6-0.2l-1.1-4.6C30.2,2.2,28.7,1,27.1,1h-4c-1.6,0-3.1,1.2-3.5,2.7l-1.1,4.6c-0.2,0.1-0.4,0.2-0.6,0.2
	l-4-2.4c-1.3-0.8-3.2-0.6-4.4,0.5L6.7,9.4c-1.1,1.1-1.3,3-0.5,4.3l2.4,4c-0.1,0.2-0.2,0.4-0.2,0.6l-4.6,1.1c-1.5,0.5-2.7,2-2.7,3.6
	v4c0,1.6,1.2,3.1,2.7,3.5l4.6,1.1c0.1,0.2,0.2,0.4,0.2,0.6l-2.4,4c-0.8,1.3-0.6,3.2,0.5,4.4l2.8,2.8c1.1,1.1,3,1.3,4.3,0.5l4-2.4
	c0.2,0.1,0.4,0.2,0.6,0.2l1.1,4.6c0.4,1.5,1.9,2.7,3.5,2.7h4c1.6,0,3.1-1.2,3.5-2.7l1.1-4.6c0.2-0.1,0.4-0.2,0.6-0.2l4,2.4
	c1.3,0.8,3.3,0.6,4.3-0.5l2.8-2.8c1.1-1.1,1.3-3,0.5-4.4l-2.4-4c0.1-0.2,0.2-0.4,0.2-0.6l4.6-1.1c1.5-0.4,2.7-1.9,2.7-3.5v-4
	C49.1,21.4,47.9,19.9,46.4,19.5z M25.9,35.5c-6.6,0.6-12-4.8-11.4-11.4c0.4-5,4.5-9.1,9.5-9.5c6.6-0.6,12,4.8,11.4,11.4
	C35,30.9,30.9,35,25.9,35.5z"/>
</svg>
