<?xml version="1.0" encoding="utf-8"?>
<!-- Generator: Adobe Illustrator 16.0.0, SVG Export Plug-In . SVG Version: 6.00 Build 0)  -->
<!DOCTYPE svg PUBLIC "-//W3C//DTD SVG 1.1 Tiny//EN" "http://www.w3.org/Graphics/SVG/1.1/DTD/svg11-tiny.dtd">
<svg version="1.1" baseProfile="tiny" id="image" xmlns="http://www.w3.org/2000/svg" xmlns:xlink="http://www.w3.org/1999/xlink"
	 x="0px" y="0px" width="110px" height="134px" viewBox="0 0 110 134" xml:space="preserve">
<path fill="none" stroke="#D0D0D0" stroke-width="2.5" stroke-linecap="round" stroke-linejoin="round" stroke-miterlimit="10" d="
	M72.875,59.579v23.594c0,1.516-1.229,2.744-2.746,2.744H45.536c-1.515,0-2.744-1.229-2.744-2.744V59.579"/>
<path fill="none" stroke="#D0D0D0" stroke-width="2.5" stroke-linecap="round" stroke-linejoin="round" stroke-miterlimit="10" d="
	M42.767,69.266L31.407,68.5c1.996-3.853,8.34-16.086,9.484-17.938c1.496-2.42,5.215-2.42,9.104-2.42c0,0,1.265,7.32,7.213,7.32
	c7.321,0,8.465-7.32,8.465-7.32c3.888,0,7.608,0,9.103,2.42c1.145,1.853,7.49,14.086,9.484,17.938l-10.294,0.083"/>
</svg>
