<?xml version="1.0" encoding="utf-8"?>
<!-- Generator: Adobe Illustrator 23.0.6, SVG Export Plug-In . SVG Version: 6.00 Build 0)  -->
<svg version="1.1" id="Layer_1" xmlns="http://www.w3.org/2000/svg" xmlns:xlink="http://www.w3.org/1999/xlink" x="0px" y="0px"
	 viewBox="0 0 50 50" style="enable-background:new 0 0 50 50;" xml:space="preserve">
<path d="M46.7,13.9v-0.3c-0.1-1.6-0.1-3.2-0.1-4.7c0-1.3-0.8-2.4-2-2.7L25.8,1C25.8,1,25.7,1,25.7,1c-0.1,0-0.2-0.1-0.3-0.1
	c-0.1,0-0.1,0-0.3,0l0,0c-0.1,0-0.1,0-0.3,0c-0.1,0-0.1,0-0.2,0c-0.1,0-0.3,0.1-0.4,0.1C24.1,1,24.1,1,24,1L5.4,6.2
	c-1.2,0.3-2,1.4-2,2.7c0,1.6-0.1,3.2-0.1,4.7c-0.1,3.3-0.2,7,0.2,10.5c0.8,8.4,3.7,18.7,20.1,24.7c0.4,0.3,0.9,0.4,1.4,0.4h0.1
	c0.3,0,0.6-0.1,0.9-0.1c7.2-2.6,12.5-6.1,15.8-10.8c2.8-3.8,4.3-8.2,4.8-14c0-0.1,0.1-0.3,0.1-0.4C46.9,20.5,46.7,17.1,46.7,13.9z
	 M6.3,9.2L24.8,4c0,0,0.1,0,0.1-0.1l0,0l0,0H25c0,0-0.1,0,0,0h0.1l18.6,5.2c0,1.5,0.1,3,0.1,4.5v0.3c0.1,1.3,0.1,2.5,0.1,3.8H6.1
	c0-1.4,0.1-2.8,0.1-4.2C6.2,12.2,6.3,10.7,6.3,9.2z M25.1,46L25.1,46H25c-0.1-0.1-0.2-0.1-0.3-0.1C11.6,41,7.8,33.7,6.7,26.6h36.6
	C42.2,33.7,38.6,41.2,25.1,46z"/>
</svg>
