<?xml version="1.0" encoding="utf-8"?>
<!-- Generator: Adobe Illustrator 23.0.6, SVG Export Plug-In . SVG Version: 6.00 Build 0)  -->
<svg version="1.1" id="ë ˆì´ì–´_1" xmlns="http://www.w3.org/2000/svg" xmlns:xlink="http://www.w3.org/1999/xlink" x="0px"
	 y="0px" viewBox="0 0 50 50" style="enable-background:new 0 0 50 50;" xml:space="preserve">
<title>manager</title>
<path d="M24.7,1.1c6.9-0.1,12.5,5.8,12.5,13s-5.5,13.2-12.3,13.3s-12.5-5.8-12.5-13S17.9,1.2,24.7,1.1z M25.1,49.1
	C11.9,49.2,1.1,43.6,1,36.5c0-4.2,3.8-8,9.7-10.4c2.5-1.1,5.5-0.7,7.7,0.9c2.3,1.1,4.2,5.4,6.6,5.4s4.3-4.4,6.5-5.5
	c2.2-1.7,5.1-2.1,7.7-1c5.9,2.3,9.8,6,9.9,10.2C49.1,43.1,38.4,49,25.1,49.1z"/>
</svg>
